HIERARCHY
ROOT Hips
{
 OFFSET 0.000000 0.000000 0.000000
 CHANNELS 6 Xposition Yposition Zposition Yrotation Xrotation Zrotation
 JOINT Chest
 {
  OFFSET 0.000000 9.585900 0.002600
  CHANNELS 3 Yrotation Xrotation Zrotation
  JOINT Chest2
  {
   OFFSET 0.000000 9.601200 -0.005300
   CHANNELS 3 Yrotation Xrotation Zrotation
   JOINT Chest3
   {
    OFFSET 0.000000 9.561800 0.000000
    CHANNELS 3 Yrotation Xrotation Zrotation
    JOINT Chest4
    {
     OFFSET 0.000000 9.552100 0.000000
     CHANNELS 3 Yrotation Xrotation Zrotation
     JOINT Neck
     {
      OFFSET 0.000000 14.453000 0.000000
      CHANNELS 3 Yrotation Xrotation Zrotation
      JOINT Head
      {
       OFFSET 0.000000 8.936500 -0.011300
       CHANNELS 3 Yrotation Xrotation Zrotation
       End Site
       {
        OFFSET 0.000000 17.073600 -0.006000
       }
      }
     }
     JOINT RightCollar
     {
      OFFSET -2.921100 9.558500 0.000000
      CHANNELS 3 Yrotation Xrotation Zrotation
      JOINT RightShoulder
      {
       OFFSET -13.519700 0.000000 0.000000
       CHANNELS 3 Yrotation Xrotation Zrotation
       JOINT RightElbow
       {
        OFFSET 0.000000 -29.696600 0.000000
        CHANNELS 3 Yrotation Xrotation Zrotation
        JOINT RightWrist
        {
         OFFSET 0.000000 -24.004700 0.000000
         CHANNELS 3 Yrotation Xrotation Zrotation
         End Site
         {
          OFFSET 0.000000 -17.728500 0.000000
         }
        }
       }
      }
     }
     JOINT LeftCollar
     {
      OFFSET 2.921100 9.558500 0.000000
      CHANNELS 3 Yrotation Xrotation Zrotation
      JOINT LeftShoulder
      {
       OFFSET 13.519700 0.000000 0.000000
       CHANNELS 3 Yrotation Xrotation Zrotation
       JOINT LeftElbow
       {
        OFFSET 0.000000 -29.696600 0.000000
        CHANNELS 3 Yrotation Xrotation Zrotation
        JOINT LeftWrist
        {
         OFFSET 0.000000 -24.004700 0.000000
         CHANNELS 3 Yrotation Xrotation Zrotation
         End Site
         {
          OFFSET 0.000000 -17.728500 0.000000
         }
        }
       }
      }
     }
    }
   }
  }
 }
 JOINT RightHip
 {
  OFFSET -7.771700 -0.012900 -0.001300
  CHANNELS 3 Yrotation Xrotation Zrotation
  JOINT RightKnee
  {
   OFFSET 0.000000 -40.869800 0.001200
   CHANNELS 3 Yrotation Xrotation Zrotation
   JOINT RightAnkle
   {
    OFFSET 0.000000 -39.717900 0.002100
    CHANNELS 3 Yrotation Xrotation Zrotation
    JOINT RightToe
    {
     OFFSET 0.000000 -4.965400 11.033500
     CHANNELS 3 Yrotation Xrotation Zrotation
     End Site
     {
      OFFSET 0.000000 -1.423100 5.872300
     }
    }
   }
  }
 }
 JOINT LeftHip
 {
  OFFSET 7.771700 -0.012900 -0.001300
  CHANNELS 3 Yrotation Xrotation Zrotation
  JOINT LeftKnee
  {
   OFFSET 0.000000 -40.869800 0.001200
   CHANNELS 3 Yrotation Xrotation Zrotation
   JOINT LeftAnkle
   {
    OFFSET 0.000000 -39.717900 0.002100
    CHANNELS 3 Yrotation Xrotation Zrotation
    JOINT LeftToe
    {
     OFFSET 0.000000 -4.965400 11.033500
     CHANNELS 3 Yrotation Xrotation Zrotation
     End Site
     {
      OFFSET 0.000000 -1.423100 5.872300
     }
    }
   }
  }
 }
}
MOTION
Frames: 5
Frame Time: 0.008333
-2.974623 52.939521 19.784936 178.968069 -17.257196 -2.295188 1.148639 15.685969 0.321796 0.106167 1.506045 0.018303 0.178454 2.527658 0.032183 1.022939 13.952385 0.287376 -0.799935 16.907336 -2.846168 -0.199926 -7.919359 -2.793414 0.758523 -1.848700 3.098269 -0.422930 -6.681572 -4.753397 -39.242037 -77.927645 69.230941 -5.634056 -13.152638 -8.864278 -5.604167 -2.525921 1.603106 4.173662 -4.022482 9.558584 50.203602 -62.889856 -88.222313 1.264562 -6.350419 10.306932 -0.916255 -60.535445 13.240995 165.472712 86.205811 164.146013 -9.800111 -21.454790 13.229842 0.016738 -0.084726 -0.138538 4.160272 -59.636016 -2.117128 120.926405 77.128435 120.231456 -5.056605 -21.425820 -2.226820 0.011127 0.016694 0.005109
-2.978158 52.938509 19.783672 178.969925 -17.255160 -2.292634 1.148236 15.689326 0.323751 0.108783 1.512485 0.021175 0.175570 2.521124 0.029994 1.020187 13.948623 0.284047 -0.803188 16.916292 -2.827807 -0.203335 -7.921941 -2.796189 0.778570 -1.839851 3.104262 -0.434190 -6.682259 -4.760345 -39.349766 -77.913692 69.348325 -5.612957 -13.152427 -8.880873 -5.589747 -2.505689 1.613812 4.165583 -4.042578 9.543398 50.223998 -62.878815 -88.228833 1.258560 -6.350525 10.307001 -0.918536 -60.530722 13.221831 165.336082 86.214029 163.986893 -9.687820 -21.431168 13.256702 0.040494 -0.097961 -0.153113 4.163473 -59.638064 -2.124540 120.946240 77.124007 120.251912 -5.068180 -21.445282 -2.228750 0.022609 0.029450 0.010331
-2.980477 52.937608 19.781908 178.972497 -17.254968 -2.298443 1.151475 15.694535 0.331895 0.105255 1.510490 0.021024 0.179100 2.524616 0.031328 1.020194 13.950659 0.288332 -0.815894 16.932871 -2.797757 -0.209155 -7.930970 -2.800729 0.789049 -1.840177 3.102630 -0.439546 -6.685585 -4.761984 -39.394370 -77.910875 69.396540 -5.631707 -13.163789 -8.874302 -5.590608 -2.508424 1.612255 4.182713 -4.041048 9.539427 50.242326 -62.880474 -88.248048 1.261332 -6.352087 10.303492 -0.932886 -60.530259 13.231288 165.617904 86.217752 164.262855 -9.659696 -21.411965 13.298199 0.079610 -0.108580 -0.181676 4.146837 -59.639737 -2.111777 120.974194 77.123650 120.279593 -5.064577 -21.449471 -2.232624 0.026071 0.029676 0.011851
-2.983130 52.936468 19.780602 178.967417 -17.250899 -2.299916 1.152776 15.703869 0.340374 0.108361 1.500729 0.016467 0.178636 2.529509 0.034085 1.020130 13.961259 0.298422 -0.825399 16.925643 -2.797165 -0.218245 -7.928431 -2.786973 0.794962 -1.855150 3.090422 -0.434925 -6.681996 -4.753456 -39.415316 -77.915511 69.418952 -5.634173 -13.166098 -8.878622 -5.589110 -2.526795 1.599900 4.205744 -4.027543 9.547394 50.281426 -62.882682 -88.300612 1.262602 -6.348226 10.298348 -0.948041 -60.540454 13.254578 165.897753 86.213106 164.555863 -9.758781 -21.398371 13.351042 0.013950 -0.085747 -0.153677 4.143428 -59.644998 -2.102839 120.983381 77.125144 120.285328 -5.051935 -21.434797 -2.230213 0.013007 0.015948 0.006169
-2.987591 52.934764 19.780460 178.970993 -17.237877 -2.292113 1.145145 15.695306 0.331937 0.106828 1.503895 0.018917 0.177937 2.534467 0.035729 1.021589 13.955667 0.296232 -0.829786 16.928716 -2.790194 -0.230021 -7.923510 -2.770007 0.796704 -1.860256 3.087956 -0.430149 -6.673437 -4.746165 -39.457530 -77.918584 69.463362 -5.625403 -13.164005 -8.885683 -5.594858 -2.524524 1.602442 4.224080 -4.026553 9.550517 50.335059 -62.881073 -88.330953 1.264987 -6.346091 10.292475 -0.956204 -60.547751 13.263971 166.067810 86.227074 164.749981 -9.940651 -21.373819 13.398887 -0.010350 -0.065083 -0.132183 4.153691 -59.658333 -2.121053 120.970092 77.127264 120.273339 -5.070431 -21.443626 -2.236922 0.029995 0.028642 0.016314
